<svg id="Layer_7" data-name="Layer 7" xmlns="http://www.w3.org/2000/svg" viewBox="0 0 800 800"><defs><style>.cls-1{fill:#fff;}.cls-2{fill:#f2e244;}</style></defs><title>crack-eggArtboard 1</title><polygon class="cls-1" points="791.27 172.24 752.65 172.24 752.65 56.35 636.76 56.35 636.76 17.73 173.24 17.73 173.24 56.35 57.35 56.35 57.35 172.24 18.73 172.24 18.73 635.76 57.35 635.76 57.35 751.65 173.24 751.65 173.24 790.27 636.76 790.27 636.76 751.65 752.65 751.65 752.65 635.76 791.27 635.76 791.27 172.24"/><polygon class="cls-2" points="563.02 309.19 547.22 309.19 547.22 261.78 499.81 261.78 499.81 245.98 310.19 245.98 310.19 261.78 262.78 261.78 262.78 309.19 246.98 309.19 246.98 498.81 262.78 498.81 262.78 546.22 310.19 546.22 310.19 562.02 499.81 562.02 499.81 546.22 547.22 546.22 547.22 498.81 563.02 498.81 563.02 309.19"/></svg>