<svg id="Layer_2" data-name="Layer 2" xmlns="http://www.w3.org/2000/svg" viewBox="0 0 585 756"><defs><style>.cls-1{fill:#fff1c3;}</style></defs><title>eggArtboard 1</title><polygon class="cls-1" points="567 396 567 351 567 306 549 306 549 261 549 216 522 216 522 171 486 171 486 153 486 126 486 108 450 108 450 72 405 72 405 63 405 45 378 45 378 27 351 27 351 9 315 9 315 0 270 0 270 9 234 9 234 27 207 27 207 45 171 45 171 63 171 72 135 72 135 108 99 108 99 126 99 153 99 171 63 171 63 216 36 216 36 261 36 306 18 306 18 351 18 396 0 396 0 441 0 486 18 486 18 531 18 576 36 576 36 621 63 621 63 666 99 666 99 693 135 693 135 711 180 711 189 711 189 738 234 738 234 747 270 747 270 756 315 756 315 747 351 747 351 738 396 738 396 711 405 711 450 711 450 693 486 693 486 666 522 666 522 621 549 621 549 576 567 576 567 531 567 486 585 486 585 441 585 396 567 396"/></svg>