<svg id="Layer_7" data-name="Layer 7" xmlns="http://www.w3.org/2000/svg" viewBox="0 0 800 800"><defs><style>.cls-1{fill:#fff;}.cls-2{fill:#f2e244;}</style></defs><title>yolkArtboard 1</title><polygon class="cls-1" points="603 286.2 583.2 286.2 583.2 226.8 523.8 226.8 523.8 207 286.2 207 286.2 226.8 226.8 226.8 226.8 286.2 207 286.2 207 523.8 226.8 523.8 226.8 583.2 286.2 583.2 286.2 603 523.8 603 523.8 583.2 583.2 583.2 583.2 523.8 603 523.8 603 286.2"/><polygon class="cls-2" points="486 356.4 477.9 356.4 477.9 332.1 453.6 332.1 453.6 324 356.4 324 356.4 332.1 332.1 332.1 332.1 356.4 324 356.4 324 453.6 332.1 453.6 332.1 477.9 356.4 477.9 356.4 486 453.6 486 453.6 477.9 477.9 477.9 477.9 453.6 486 453.6 486 356.4"/><polygon class="cls-2" points="800 160.8 760.05 160.8 760.05 40.95 640.2 40.95 640.2 1 160.8 1 160.8 40.95 40.95 40.95 40.95 160.8 1 160.8 1 640.2 40.95 640.2 40.95 760.05 160.8 760.05 160.8 800 640.2 800 640.2 760.05 760.05 760.05 760.05 640.2 800 640.2 800 160.8"/></svg>