<svg xmlns="http://www.w3.org/2000/svg" viewBox="0 0 800 800"><defs><style>.cls-1{fill:#fcddd9;}.cls-2{fill:#f7f8f9;}</style></defs><title>crack-eggArtboard 1</title><g id="Layer_4" data-name="Layer 4"><polygon class="cls-1" points="765 189 765 158.83 740.82 158.83 740.82 99 702 99 702 60.19 642.17 60.19 642.17 36 612 36 612 1 189 1 189 36 158.83 36 158.83 60.19 99 60.19 99 99 60.19 99 60.19 158.83 36 158.83 36 189 1 189 1 612 36 612 36 642.17 60.19 642.17 60.19 702 99 702 99 740.82 158.83 740.82 158.83 765 189 765 189 800 612 800 612 765 642.17 765 642.17 740.82 702 740.82 702 702 740.82 702 740.82 642.17 765 642.17 765 612 800 612 800 189 765 189"/></g><g id="Layer_2" data-name="Layer 2"><rect class="cls-2" x="371.13" y="-92.71" width="58.74" height="424.16" transform="translate(519.87 -281.13) rotate(90)"/><rect class="cls-2" x="371.13" y="469.55" width="58.74" height="424.16" transform="translate(1082.13 281.13) rotate(90)"/><rect class="cls-2" x="652.26" y="188.42" width="58.74" height="424.16" transform="translate(1363.26 801) rotate(180)"/><rect class="cls-2" x="90" y="188.42" width="58.74" height="424.16" transform="translate(238.74 801) rotate(180)"/><rect class="cls-2" x="612" y="126" width="63" height="63" transform="translate(801 -486) rotate(90)"/><rect class="cls-2" x="126" y="126" width="63" height="63" transform="translate(315) rotate(90)"/><rect class="cls-2" x="126" y="612" width="63" height="63" transform="translate(801 486) rotate(90)"/><rect class="cls-2" x="612" y="612" width="63" height="63" transform="translate(1287) rotate(90)"/></g></svg>